# xmcd CD database file
#
# Track frame offsets:
#	150
#	173803
#	192823
#
# Disc length: 3366 seconds
#
# Revision: 0
# Processed by: cddbd v1.5.2PL0 Copyright (c) Steve Scherf et al.
# Submitted via: CDex 1.70beta2
#
DISCID=1d0d2403
DTITLE=Amalgam - Wipe Out [CD3]
DYEAR=1979
DGENRE=Jazz
TTITLE0=Tribute To Mingus
TTITLE1=Monk's House
TTITLE2=War Dance
EXTD=YEAR: 1979
EXTT0=
EXTT1=
EXTT2=
PLAYORDER=
